# xmcd CD database file generated by OrangeCD 5.2
#
# Track frame offsets:
#	150
#	21425
#	42515
#
# Disc length: 724 seconds
#
# Revision: 0
# Processed by: cddbd v1.5.1PL0 Copyright (c) Steve Scherf et al.
# Submitted via: OrangeCD 5.2
#
DISCID=2202d203
DTITLE=Hayami Yuu - hepbern ni yoroshiku
DYEAR=1900
DGENRE=
TTITLE0=Hepbern ni yoroshiku
TTITLE1=Last Dance
TTITLE2=One Fine Day
EXTD=
EXTT0=
EXTT1=
EXTT2=
PLAYORDER=
